HIERARCHY
ROOT root
{
	OFFSET 0.000000 0.000000 0.000000
	CHANNELS 6 Xposition Yposition Zposition Zrotation Yrotation Xrotation
	JOINT lhip
	{
		OFFSET 0.058581 -0.082280 -0.017664
		CHANNELS 3 Zrotation Yrotation Xrotation
		JOINT lknee
		{
			OFFSET 0.043451 -0.386469 0.008037
			CHANNELS 3 Zrotation Yrotation Xrotation
			JOINT lankle
			{
				OFFSET -0.014790 -0.426874 -0.037428
				CHANNELS 3 Zrotation Yrotation Xrotation
				JOINT ltoe
				{
					OFFSET 0.041054 -0.060286 0.122042
					CHANNELS 3 Zrotation Yrotation Xrotation
					End Site
					{
						OFFSET 0.000000 0.000000 0.000000
					}
				}
			}
		}
	}
	JOINT rhip
	{
		OFFSET -0.060310 -0.090513 -0.013543
		CHANNELS 3 Zrotation Yrotation Xrotation
		JOINT rknee
		{
			OFFSET -0.043257 -0.383688 -0.004843
			CHANNELS 3 Zrotation Yrotation Xrotation
			JOINT rankle
			{
				OFFSET 0.019056 -0.420046 -0.034562
				CHANNELS 3 Zrotation Yrotation Xrotation
				JOINT rtoe
				{
					OFFSET -0.034840 -0.062106 0.130323
					CHANNELS 3 Zrotation Yrotation Xrotation
					End Site
					{
						OFFSET 0.000000 0.000000 0.000000
					}
				}
			}
		}
	}
	JOINT lowerback
	{
		OFFSET 0.004439 0.124404 -0.038385
		CHANNELS 3 Zrotation Yrotation Xrotation
		JOINT upperback
		{
			OFFSET 0.004488 0.137956 0.026820
			CHANNELS 3 Zrotation Yrotation Xrotation
			JOINT chest
			{
				OFFSET -0.002265 0.056032 0.002855
				CHANNELS 3 Zrotation Yrotation Xrotation
				JOINT lowerneck
				{
					OFFSET -0.013390 0.211636 -0.033468
					CHANNELS 3 Zrotation Yrotation Xrotation
					JOINT upperneck
					{
						OFFSET 0.010113 0.088937 0.050410
						CHANNELS 3 Zrotation Yrotation Xrotation
						End Site
						{
							OFFSET 0.000000 0.000000 0.000000
						}
					}
				}
				JOINT lclavicle
				{
					OFFSET 0.071702 0.114000 -0.018898
					CHANNELS 3 Zrotation Yrotation Xrotation
					JOINT lshoulder
					{
						OFFSET 0.122921 0.045205 -0.019046
						CHANNELS 3 Zrotation Yrotation Xrotation
						JOINT lelbow
						{
							OFFSET 0.255332 -0.015649 -0.022946
							CHANNELS 3 Zrotation Yrotation Xrotation
							JOINT lwrist
							{
								OFFSET 0.265709 0.012698 -0.007375
								CHANNELS 3 Zrotation Yrotation Xrotation
								End Site
								{
									OFFSET 0.000000 0.000000 0.000000
								}
							}
						}
					}
				}
				JOINT rclavicle
				{
					OFFSET -0.082954 0.112472 -0.023707
					CHANNELS 3 Zrotation Yrotation Xrotation
					JOINT rshoulder
					{
						OFFSET -0.113228 0.046853 -0.008472
						CHANNELS 3 Zrotation Yrotation Xrotation
						JOINT relbow
						{
							OFFSET -0.260127 -0.014369 -0.031269
							CHANNELS 3 Zrotation Yrotation Xrotation
							JOINT rwrist
							{
								OFFSET -0.269108 0.006794 -0.006027
								CHANNELS 3 Zrotation Yrotation Xrotation
								End Site
								{
									OFFSET 0.000000 0.000000 0.000000
								}
							}
						}
					}
				}
			}
		}
	}
}
MOTION
Frames: 11
Frame Time: 0.033333
0.499930 0.296638 0.957215 82.572349 -2.586572 84.681835 -0.321334 -4.229520 -19.571747 -4.432907 -3.115386 11.458980 0.486667 6.458727 -2.230550 0.000000 -0.000000 0.000000 -3.202743 -3.656126 19.379670 0.460088 10.655529 24.744944 5.255823 -4.431951 -14.033302 0.000000 -0.000000 0.000000 1.346764 8.564106 10.365725 -0.664894 1.460760 -1.933151 -2.049965 2.647875 1.995251 1.671144 4.299654 -7.328520 -4.477898 -1.509885 10.235151 -31.801317 9.600161 -1.953483 -51.377675 3.666125 9.956044 3.282231 -23.595984 11.916455 -3.431966 -0.573907 -0.843952 31.131536 1.056037 -1.572582 47.013262 10.537705 13.933552 -12.361459 28.393818 -8.816387 3.583472 2.946621 -3.908911 
0.553615 0.302791 0.959513 84.438123 -3.157483 84.400415 -1.807318 -5.563643 -19.432510 -5.268318 -3.251698 16.774539 2.694174 6.945222 -1.629733 0.000000 -0.000000 0.000000 -4.076655 -4.055901 17.907199 0.523433 8.958825 31.816847 7.280729 -3.690451 -2.628218 0.000000 -0.000000 0.000000 0.658429 8.333274 9.626935 -0.448618 0.744024 -2.365670 -2.089273 2.041453 2.051774 1.563776 2.913262 -6.429957 -4.031974 -0.364731 10.443801 -31.627773 10.580788 -1.639741 -51.595613 3.882702 9.532060 3.852205 -22.408233 11.784158 -4.443012 0.168240 -0.552061 31.563001 -0.405806 -1.910018 47.994747 9.686591 14.439740 -12.517658 26.495307 -9.101448 3.951390 3.015672 -3.348122 
0.602113 0.308264 0.963978 84.334887 -3.662059 83.621120 -2.854309 -5.997309 -16.746632 -6.907867 -3.546751 19.008043 6.818971 7.109197 -3.418596 0.000000 -0.000000 0.000000 -4.679030 -3.671767 13.528286 1.245092 8.708181 41.959953 6.788092 -4.556440 10.168209 0.000000 -0.000000 0.000000 0.009089 7.701379 10.336310 -0.262020 1.726469 -2.704973 -2.088994 1.878062 1.903305 1.451052 1.721946 -6.483344 -3.907542 0.845655 10.249127 -31.495068 10.866154 -1.132591 -51.945151 3.586127 8.943684 4.786136 -22.047896 11.748978 -5.515399 0.292156 -1.054189 31.611852 -1.234244 -1.908031 49.027667 9.050892 14.672279 -13.193465 25.355078 -10.995736 4.576889 1.734995 -3.490312 
0.645456 0.313346 0.967455 85.239121 -3.675702 83.568608 -4.473781 -5.432768 -14.772037 -7.360383 -5.735587 20.948587 8.693648 8.244217 -5.176979 0.000000 -0.000000 0.000000 -4.088026 -2.806076 7.117088 1.480671 6.039473 52.289601 3.132081 -8.406869 15.783477 0.000000 -0.000000 0.000000 -0.376244 5.591854 10.424201 -0.016119 2.347874 -2.801471 -2.207753 1.611607 2.384106 1.630934 1.607589 -7.551811 -4.271936 1.742092 10.170634 -31.922838 10.615325 -0.706831 -51.611150 2.814640 8.364528 5.554048 -23.066516 10.770824 -6.625072 0.732539 -2.015640 32.375186 -0.852952 -1.664007 48.853529 9.195325 14.855063 -13.137505 23.708231 -12.812105 5.546352 1.434996 -3.717068 
0.690620 0.315504 0.973034 86.632836 -3.546342 82.664410 -5.724595 -4.574131 -10.299258 -6.826088 -7.522423 19.798695 9.250470 8.140374 -7.223921 0.000000 -0.000000 0.000000 -3.521307 -2.738858 2.318712 -0.201968 2.750921 59.188266 -0.203163 -12.251608 10.172521 0.000000 -0.000000 0.000000 -0.737882 3.957827 11.148813 0.266135 2.216106 -2.843048 -2.033277 0.789775 2.887862 1.988499 2.422902 -8.175359 -4.955328 1.953690 9.838834 -31.919160 9.701939 -0.368156 -51.273388 1.687630 7.690260 5.247664 -23.023940 10.610094 -6.585327 1.295588 -2.068888 32.925533 -0.201075 -2.064733 48.856501 8.601270 14.989925 -12.540554 22.222212 -12.583352 6.024496 1.750449 -3.040902 
0.734974 0.316630 0.980594 87.575243 -3.091633 81.370046 -6.111119 -3.675404 -4.762921 -6.634793 -9.357362 17.893985 9.593373 8.752051 -8.605079 0.000000 -0.000000 0.000000 -2.975584 -2.911838 -1.846135 -1.865657 -0.115292 62.948577 0.086836 -13.895633 4.443907 0.000000 -0.000000 0.000000 -0.661261 2.589324 12.320094 0.457601 2.085150 -2.950401 -1.796137 0.240350 3.061566 2.080552 3.357648 -7.574981 -5.135817 1.909290 9.887948 -31.276032 8.476218 0.151490 -51.489330 0.808252 7.464411 5.420198 -23.318441 10.291927 -6.605314 1.142913 -1.842032 32.919394 0.150627 -1.853872 49.428936 7.827563 14.768812 -12.502372 21.534396 -11.791324 6.733687 1.161818 -2.300390 
0.776155 0.317296 0.987326 88.750686 -2.614413 80.969390 -6.038125 -1.856408 -0.322224 -6.356138 -12.297694 15.383606 9.220211 8.660720 -9.446446 0.000000 -0.000000 0.000000 -2.559556 -2.918284 -6.833211 -1.448229 -2.309691 64.122403 0.652954 -13.760136 2.993307 0.000000 -0.000000 0.000000 -0.725740 0.857024 12.494271 0.728622 1.935802 -2.715448 -1.680310 -0.441092 3.029944 2.293563 4.047283 -7.039766 -5.248950 1.819526 10.144945 -30.860914 7.534383 0.480862 -51.007813 -0.635361 7.504686 5.361697 -24.324174 9.741505 -6.086284 0.679166 -1.161726 33.032071 0.297095 -1.624678 49.894310 7.393441 14.437463 -12.242718 21.075596 -11.498255 6.950334 1.217025 -1.760503 
0.816587 0.317276 0.992354 89.739076 -2.021522 80.485934 -5.358758 -0.004618 4.133312 -6.144940 -14.482987 12.826686 8.452511 8.067684 -10.366354 0.000000 -0.000000 0.000000 -2.082042 -2.978016 -10.990663 -0.371087 -3.746007 61.989631 1.519613 -11.816359 -0.111931 0.000000 -0.000000 0.000000 -0.611483 -0.622342 12.982065 0.915020 1.634764 -2.427177 -1.511331 -0.799904 2.871257 2.388784 4.887949 -6.466512 -4.977429 1.370896 10.143955 -30.318436 6.631732 0.419185 -50.625694 -1.943090 7.575310 5.525596 -25.917310 8.612774 -5.196770 0.176815 -1.273449 33.143806 0.324882 -1.355660 50.322990 6.503732 13.952479 -12.313182 21.443413 -11.661692 6.936358 1.116479 -2.199810 
0.855870 0.317027 0.994547 90.899338 -1.270936 80.164225 -4.203441 1.432888 8.161766 -5.895701 -16.464396 10.667159 7.803117 7.797404 -11.560330 0.000000 -0.000000 0.000000 -1.702357 -2.586347 -14.459162 0.626082 -5.358467 57.356055 3.706610 -10.742233 -4.251339 0.000000 -0.000000 0.000000 -0.302313 -2.272276 13.974027 0.991203 1.438398 -2.576999 -1.326929 -1.206182 2.563043 2.532156 5.895151 -6.518055 -4.862303 0.784700 10.370948 -29.713660 5.953196 0.014397 -50.098476 -3.396803 7.552059 5.671485 -27.863026 7.565751 -4.571983 0.436731 -0.787069 33.118626 0.145451 -1.387421 50.678893 5.514274 13.672360 -12.137603 21.995874 -11.553291 7.005043 1.286527 -1.990058 
0.893824 0.316457 0.993978 91.764322 -0.675977 80.121418 -2.891833 3.209935 11.590741 -5.620975 -17.400872 8.708882 6.991837 7.301813 -12.778661 0.000000 -0.000000 0.000000 -1.429843 -2.218562 -17.381435 1.283934 -6.031977 50.207459 5.939877 -10.622839 -8.777294 0.000000 -0.000000 0.000000 -0.158120 -3.600586 14.667157 1.053340 1.163080 -2.803225 -1.024106 -1.831132 2.869650 2.576046 7.098999 -7.041988 -5.043430 0.309065 10.215803 -29.221330 5.388429 -0.163522 -49.678217 -5.286713 7.326228 6.047967 -29.479156 6.741321 -2.677102 0.608168 -0.775207 33.253181 -0.013931 -1.654446 50.697596 5.003512 13.808137 -11.671179 22.753661 -10.378054 6.291715 1.522786 -1.627278 
0.931800 0.315779 0.990541 92.836555 -0.221374 80.487523 -1.980347 4.043062 14.494252 -5.179719 -18.386561 7.293342 6.218153 6.954561 -13.914927 0.000000 -0.000000 0.000000 -1.245467 -2.095961 -19.238228 0.417569 -7.406693 40.457365 5.022234 -11.191821 -6.585305 0.000000 -0.000000 0.000000 -0.085337 -4.763899 14.751006 1.053565 0.678954 -2.699985 -0.584918 -2.301097 2.725746 2.221588 7.102334 -7.222627 -4.523551 0.662845 10.267945 -28.830802 4.799048 -0.152015 -48.938336 -7.179250 7.379013 6.372094 -30.952407 6.494494 -2.097078 -0.636966 -0.412576 33.164079 -0.068553 -1.389449 51.049809 4.413218 14.034619 -11.904417 23.174106 -10.043018 6.069820 1.435651 -1.573968 
